<svg width="30" height="30" viewBox="0 0 30 30" fill="none" xmlns="http://www.w3.org/2000/svg">
<path d="M8.8242 19.4405C8.5158 18.7709 7.6116 18.5093 7.0728 17.9051C6.5343 17.3009 5.3538 13.5125 6.7866 14.024C8.2191 14.5355 8.379 16.133 10.0746 17.1314C11.7705 18.1298 13.3815 19.448 13.7874 20.4926C14.1936 21.5372 13.9614 25.8794 13.9614 25.8794L10.254 26.4005C11.0076 23.3105 6.8232 22.0046 5.9841 20.495C5.4501 19.5332 5.2587 18.2777 5.2587 18.2777C5.0274 16.9028 4.5621 15.0905 4.4121 14.4206C4.2006 13.4687 3 10.2356 3 10.2356C4.0197 9.94941 4.2318 10.0385 4.2318 10.0385C5.4906 10.0544 6.3057 13.9214 6.3057 13.9214" stroke="#69696A" stroke-miterlimit="10" stroke-linecap="round" stroke-linejoin="round"/>
<path d="M20.9347 19.4405C21.2431 18.7709 22.1473 18.5093 22.6861 17.9051C23.2246 17.3009 24.4051 13.5125 22.9723 14.024C21.5398 14.5355 21.3799 16.133 19.6843 17.1314C17.9884 18.1298 16.3774 19.448 15.9715 20.4926C15.5653 21.5372 15.7975 25.8794 15.7975 25.8794L19.5049 26.4005C18.7513 23.3105 22.9357 22.0046 23.7745 20.495C24.3088 19.5332 24.5002 18.2777 24.5002 18.2777C24.7315 16.9028 25.1971 15.0905 25.3468 14.4206C25.5583 13.4687 26.7589 10.2356 26.7589 10.2356C25.7392 9.94941 25.5271 10.0385 25.5271 10.0385C24.2683 10.0544 23.4532 13.9214 23.4532 13.9214" stroke="#69696A" stroke-miterlimit="10" stroke-linecap="round" stroke-linejoin="round"/>
<path d="M20.3277 20.4219C20.3277 20.4219 20.0691 20.7864 19.7964 21.3309" stroke="#69696A" stroke-miterlimit="10" stroke-linecap="round" stroke-linejoin="round"/>
<path d="M10.149 21.3309C9.87628 20.7864 9.61768 20.4219 9.61768 20.4219" stroke="#69696A" stroke-miterlimit="10" stroke-linecap="round" stroke-linejoin="round"/>
<path d="M9.22644 9.55377C8.98554 9.01317 8.84424 8.48217 8.84424 7.98087C8.84424 4.59867 12.7679 2.28117 15.272 4.43097C18.1115 2.32197 21.5795 4.59867 21.5795 7.98087C21.5795 10.3347 18.5312 13.3425 16.6763 14.9541L16.1234 15.4242C15.6146 15.8478 15.284 16.0959 15.284 16.0959C15.284 16.0959 12.545 14.0832 10.6397 11.7447" stroke="#69696A" stroke-miterlimit="10" stroke-linecap="round" stroke-linejoin="round"/>
<path d="M6.99951 10.7347H12.2003L13.6985 7.25195L15.6983 11.4922L16.4597 8.17985L19.9973 8.18645" stroke="#69696A" stroke-miterlimit="10" stroke-linecap="round" stroke-linejoin="round"/>
</svg>
