<svg width="32" height="32" viewBox="0 0 32 32" fill="none" xmlns="http://www.w3.org/2000/svg">
<g clip-path="url(#clip0_207_10021)">
<path fill-rule="evenodd" clip-rule="evenodd" d="M16.0003 2.66602C8.63633 2.66602 2.66699 8.63535 2.66699 15.9993C2.66699 18.5193 3.36699 20.8793 4.58433 22.89L3.39499 26.9327C3.3267 27.1648 3.32221 27.411 3.38198 27.6455C3.44176 27.8799 3.56359 28.0939 3.73467 28.265C3.90575 28.4361 4.11977 28.5579 4.35421 28.6177C4.58866 28.6775 4.83488 28.673 5.06699 28.6047L9.10966 27.4153C11.1879 28.6728 13.5713 29.336 16.0003 29.3327C23.3643 29.3327 29.3337 23.3633 29.3337 15.9993C29.3337 8.63535 23.3643 2.66602 16.0003 2.66602ZM12.9843 19.0167C15.6817 21.7127 18.2563 22.0687 19.1657 22.102C20.5483 22.1527 21.895 21.0967 22.419 19.8713C22.4851 19.7189 22.5092 19.5515 22.4885 19.3866C22.4679 19.2218 22.4033 19.0654 22.3017 18.934C21.571 18.0007 20.583 17.33 19.6177 16.6633C19.4161 16.524 19.1684 16.4681 18.9266 16.5074C18.6847 16.5466 18.4674 16.678 18.3203 16.874L17.5203 18.094C17.4783 18.1596 17.4127 18.2066 17.3371 18.2255C17.2615 18.2443 17.1816 18.2335 17.1137 18.1953C16.571 17.8847 15.7803 17.3567 15.2123 16.7887C14.6443 16.2207 14.1483 15.466 13.8697 14.958C13.8351 14.8935 13.8251 14.8186 13.8415 14.7473C13.858 14.6759 13.8997 14.6129 13.959 14.57L15.191 13.6553C15.3668 13.5025 15.4803 13.2903 15.5098 13.0592C15.5393 12.8281 15.4828 12.5942 15.351 12.402C14.7537 11.5273 14.0577 10.4153 13.0483 9.67802C12.9181 9.58362 12.7655 9.52476 12.6056 9.50723C12.4457 9.48969 12.2839 9.51409 12.1363 9.57802C10.9097 10.1033 9.84832 11.45 9.89899 12.8353C9.93232 13.7447 10.2883 16.3193 12.9843 19.0167Z" fill="#464646"/>
</g>
<defs>
<clipPath id="clip0_207_10021">
<rect width="32" height="32" fill="white"/>
</clipPath>
</defs>
</svg>
