<svg width="33" height="34" viewBox="0 0 33 34" fill="none" xmlns="http://www.w3.org/2000/svg">
<g clip-path="url(#clip0_708_22614)">
<mask id="mask0_708_22614" style="mask-type:luminance" maskUnits="userSpaceOnUse" x="0" y="14" width="14" height="16">
<path d="M0.900391 14.9805H13.4262V29.4871H0.900391V14.9805Z" fill="white"/>
</mask>
<g mask="url(#mask0_708_22614)">
<path d="M0.90625 18.7483L7.09542 15.1758L13.2837 18.7483V25.8949L7.09542 29.4674L0.90625 25.8949V18.7483Z" fill="#2F748E"/>
</g>
<path d="M13.8145 18.7483L20.0036 15.1758L26.192 18.7483V25.8949L20.0036 29.4675L13.8145 25.8949V18.7483Z" fill="#0097B2"/>
<path d="M7.36035 7.5499L13.5487 3.97656L19.737 7.5499V14.6957L13.5487 18.2682L7.36035 14.6957V7.5499Z" fill="#27AEC6"/>
<mask id="mask1_708_22614" style="mask-type:luminance" maskUnits="userSpaceOnUse" x="2" y="18" width="14" height="16">
<path d="M2.56641 18.668H15.0481V33.008H2.56641V18.668Z" fill="white"/>
</mask>
<g mask="url(#mask1_708_22614)">
<path d="M8.81138 18.7188L2.62305 22.2913V29.4371L8.81138 33.0104L14.9997 29.4371V22.2913L8.81138 18.7188ZM8.81138 19.2121L14.573 22.5379V29.1904L8.81138 32.5171L3.05055 29.1904V22.5379L8.81138 19.2121Z" fill="#2F748E"/>
</g>
<path d="M21.9881 15.1758L15.7998 18.7483V25.8949L21.9881 29.4674L28.1765 25.8949V18.7483L21.9881 15.1758ZM21.9881 15.6691L27.749 18.9958V25.6474L21.9881 28.9741L16.2273 25.6474V18.9958L21.9881 15.6691Z" fill="#2F748E"/>
<mask id="mask2_708_22614" style="mask-type:luminance" maskUnits="userSpaceOnUse" x="3" y="1" width="14" height="15">
<path d="M3.61328 1.00781H16.1999V15.4061H3.61328V1.00781Z" fill="white"/>
</mask>
<g mask="url(#mask2_708_22614)">
<path d="M9.84737 1.00781L3.6582 4.58115V11.727L9.84737 15.2995L16.0357 11.727V4.58115L9.84737 1.00781ZM9.84737 1.50115L15.6082 4.82781V11.4803L9.84737 14.8061L4.0857 11.4803V4.82781L9.84737 1.50115Z" fill="#2F748E"/>
</g>
<path d="M22.3081 7.2832L20.8848 8.10487V9.74904L22.3081 10.5707L23.7323 9.74904V8.10487L22.3081 7.2832ZM22.3081 7.39654L23.6339 8.16154V9.69237L22.3081 10.4574L20.9831 9.69237V8.16154L22.3081 7.39654Z" fill="#2F748E"/>
<path d="M22.9707 11.0986L25.324 9.74023L27.6782 11.0986V13.8161L25.324 15.1752L22.9707 13.8161V11.0986Z" fill="#2F748E"/>
<path d="M28.4854 16.5956L29.8245 15.8223L31.1637 16.5956V18.1414L29.8245 18.9148L28.4854 18.1414V16.5956Z" fill="#0097B2"/>
<path d="M27.8154 8.54096L28.4854 8.1543L29.1554 8.54096V9.3143L28.4854 9.70096L27.8154 9.3143V8.54096Z" fill="#0097B2"/>
<mask id="mask3_708_22614" style="mask-type:luminance" maskUnits="userSpaceOnUse" x="29" y="15" width="4" height="4">
<path d="M29.7197 15.0176H32.5739V18.3942H29.7197V15.0176Z" fill="white"/>
</mask>
<g mask="url(#mask3_708_22614)">
<path d="M31.1499 15.0781L29.7266 15.9006V17.544L31.1499 18.3656L32.5741 17.544V15.9006L31.1499 15.0781ZM31.1499 15.1915L32.4757 15.9573V17.4873L31.1499 18.2523L29.8249 17.4873V15.9573L31.1499 15.1915Z" fill="#2F748E"/>
</g>
</g>
<defs>
<clipPath id="clip0_708_22614">
<rect width="33" height="33" fill="white" transform="translate(0 0.5)"/>
</clipPath>
</defs>
</svg>
