<svg width="180" height="80" viewBox="0 0 180 80" fill="none" xmlns="http://www.w3.org/2000/svg">
<mask id="mask0_207_9977" style="mask-type:luminance" maskUnits="userSpaceOnUse" x="1" y="34" width="32" height="38">
<path d="M1 34.9297H32.3146V71.1964H1V34.9297Z" fill="white"/>
</mask>
<g mask="url(#mask0_207_9977)">
<path d="M1.01465 44.3492L16.4876 35.418L31.9584 44.3492V62.2159L16.4876 71.1471L1.01465 62.2159V44.3492Z" fill="#2F748E"/>
</g>
<path d="M33.2832 44.3473L48.7561 35.416L64.227 44.3473V62.2139L48.7561 71.1452L33.2832 62.2139V44.3473Z" fill="#0097B2"/>
<path d="M17.1504 16.3513L32.6212 7.41797L48.0921 16.3513V34.2159L32.6212 43.1471L17.1504 34.2159V16.3513Z" fill="#27AEC6"/>
<mask id="mask1_207_9977" style="mask-type:luminance" maskUnits="userSpaceOnUse" x="5" y="44" width="32" height="36">
<path d="M5.16406 44.1504H36.3682V80.0004H5.16406V44.1504Z" fill="white"/>
</mask>
<g mask="url(#mask1_207_9977)">
<path d="M20.7765 44.2773L5.30566 53.2086V71.0732L20.7765 80.0065L36.2473 71.0732V53.2086L20.7765 44.2773ZM20.7765 45.5107L35.1807 53.8253V70.4565L20.7765 78.7732L6.37441 70.4565V53.8253L20.7765 45.5107Z" fill="#2F748E"/>
</g>
<path d="M53.7189 35.416L38.248 44.3473V62.2139L53.7189 71.1452L69.1897 62.2139V44.3473L53.7189 35.416ZM53.7189 36.6493L68.121 44.966V61.5952L53.7189 69.9118L39.3168 61.5952V44.966L53.7189 36.6493Z" fill="#2F748E"/>
<mask id="mask2_207_9977" style="mask-type:luminance" maskUnits="userSpaceOnUse" x="7" y="0" width="33" height="36">
<path d="M7.78125 0H39.2479V35.9958H7.78125V0Z" fill="white"/>
</mask>
<g mask="url(#mask2_207_9977)">
<path d="M23.3665 0L7.89355 8.93333V26.7979L23.3665 35.7292L38.8373 26.7979V8.93333L23.3665 0ZM23.3665 1.23333L37.7686 9.55V26.1813L23.3665 34.4958L8.9623 26.1813V9.55L23.3665 1.23333Z" fill="#2F748E"/>
</g>
<path d="M54.5193 15.6895L50.9609 17.7436V21.854L54.5193 23.9082L58.0797 21.854V17.7436L54.5193 15.6895ZM54.5193 15.9728L57.8339 17.8853V21.7124L54.5193 23.6249L51.2068 21.7124V17.8853L54.5193 15.9728Z" fill="#2F748E"/>
<path d="M56.1758 25.224L62.0591 21.8281L67.9445 25.224V32.0177L62.0591 35.4156L56.1758 32.0177V25.224Z" fill="#2F748E"/>
<path d="M69.9629 38.9665L73.3108 37.0332L76.6587 38.9665V42.8311L73.3108 44.7645L69.9629 42.8311V38.9665Z" fill="#0097B2"/>
<path d="M68.2871 18.8299L69.9621 17.8633L71.6371 18.8299V20.7633L69.9621 21.7299L68.2871 20.7633V18.8299Z" fill="#0097B2"/>
<mask id="mask3_207_9977" style="mask-type:luminance" maskUnits="userSpaceOnUse" x="73" y="35" width="8" height="9">
<path d="M73.0479 35.0195H80.1833V43.4612H73.0479V35.0195Z" fill="white"/>
</mask>
<g mask="url(#mask3_207_9977)">
<path d="M76.6228 35.1719L73.0645 37.2281V41.3365L76.6228 43.3906L80.1832 41.3365V37.2281L76.6228 35.1719ZM76.6228 35.4552L79.9374 37.3698V41.1948L76.6228 43.1073L73.3103 41.1948V37.3698L76.6228 35.4552Z" fill="#2F748E"/>
</g>
<path d="M91.43 35.8857H90.1467L90.13 29.7357L87.53 35.0273H86.63L84.03 29.7357V35.8857H82.7217V27.6523H84.3717L87.0883 33.119L89.7967 27.6523H91.43V35.8857Z" fill="#545454"/>
<path d="M99.4854 28.894H94.9937V31.119H99.0104V32.369H94.9937V34.6357H99.6271V35.8857H93.6021V27.6523H99.4854V28.894Z" fill="#545454"/>
<path d="M101.318 27.6523H104.693C105.926 27.6523 106.943 28.0419 107.743 28.819C108.547 29.5919 108.951 30.5753 108.951 31.769C108.951 32.9586 108.545 33.9419 107.735 34.719C106.928 35.4982 105.903 35.8857 104.66 35.8857H101.318V27.6523ZM102.71 28.894V34.6357H104.726C105.537 34.6357 106.21 34.369 106.743 33.8357C107.28 33.2982 107.551 32.6148 107.551 31.7857C107.551 30.9523 107.272 30.2648 106.718 29.719C106.168 29.169 105.485 28.894 104.668 28.894H102.71Z" fill="#545454"/>
<path d="M116.317 28.894H111.826V31.119H115.842V32.369H111.826V34.6357H116.459V35.8857H110.434V27.6523H116.317V28.894Z" fill="#545454"/>
<path d="M123.375 35.8857L121.867 33.394C121.788 33.4003 121.663 33.4023 121.492 33.4023H119.542V35.8857H118.15V27.6523H121.492C122.542 27.6523 123.355 27.8982 123.934 28.3857C124.517 28.8753 124.809 29.5669 124.809 30.4607C124.809 31.1232 124.661 31.6815 124.367 32.1357C124.071 32.5857 123.65 32.919 123.1 33.1357L124.95 35.8857H123.375ZM119.542 32.1523H121.492C122.825 32.1523 123.492 31.6003 123.492 30.494C123.492 29.4273 122.825 28.894 121.492 28.894H119.542V32.1523Z" fill="#545454"/>
<path d="M128.046 35.8857H126.655V27.6523H128.046V35.8857Z" fill="#545454"/>
<path d="M140.383 35.8857H138.992V32.4773H134.633V35.8857H133.242V27.6523H134.633V31.2273H138.992V27.6523H140.383V35.8857Z" fill="#545454"/>
<path d="M148.429 28.894H143.938V31.119H147.954V32.369H143.938V34.6357H148.571V35.8857H142.546V27.6523H148.429V28.894Z" fill="#545454"/>
<path d="M155.579 34.0273H151.429L150.637 35.8857H149.187L152.829 27.6523H154.254L157.854 35.8857H156.37L155.579 34.0273ZM155.054 32.794L153.495 29.1357L151.945 32.794H155.054Z" fill="#545454"/>
<path d="M160.335 34.6273H163.893V35.8857H158.943V27.6523H160.335V34.6273Z" fill="#545454"/>
<path d="M170.849 28.894H168.232V35.8857H166.849V28.894H164.249V27.6523H170.849V28.894Z" fill="#545454"/>
<path d="M179.176 35.8857H177.784V32.4773H173.426V35.8857H172.034V27.6523H173.426V31.2273H177.784V27.6523H179.176V35.8857Z" fill="#545454"/>
<path d="M93.8812 47.0173L92.1729 44.7257L91.2979 45.7007V47.0173H90.4229V41.834H91.2979V44.5173L93.7729 41.834H94.7979L92.7895 44.0507L94.9312 47.0173H93.8812Z" fill="#7B7B7B"/>
<path d="M97.8413 43.042C98.5184 43.042 99.0079 43.2482 99.3079 43.6587C99.6121 44.0649 99.7413 44.6378 99.6913 45.3753H96.7079C96.7788 45.6816 96.9246 45.9232 97.1413 46.1003C97.3579 46.2732 97.6204 46.3587 97.9329 46.3587C98.3767 46.3587 98.7454 46.2066 99.0413 45.9003L99.4996 46.3837C99.0934 46.8295 98.5496 47.0503 97.8663 47.0503C97.26 47.0503 96.7704 46.867 96.3996 46.5003C96.0329 46.1295 95.8496 45.6482 95.8496 45.0587C95.8496 44.4649 96.0329 43.9816 96.3996 43.6087C96.7704 43.2378 97.2517 43.0482 97.8413 43.042ZM96.6913 44.7503H98.9496C98.9329 44.4337 98.8246 44.1837 98.6246 44.0003C98.4288 43.817 98.1704 43.7253 97.8496 43.7253C97.5371 43.7253 97.2788 43.817 97.0746 44.0003C96.8684 44.1837 96.7413 44.4337 96.6913 44.7503Z" fill="#7B7B7B"/>
<path d="M102.73 43.042C103.407 43.042 103.897 43.2482 104.197 43.6587C104.501 44.0649 104.63 44.6378 104.58 45.3753H101.597C101.667 45.6816 101.813 45.9232 102.03 46.1003C102.247 46.2732 102.509 46.3587 102.822 46.3587C103.265 46.3587 103.634 46.2066 103.93 45.9003L104.388 46.3837C103.982 46.8295 103.438 47.0503 102.755 47.0503C102.149 47.0503 101.659 46.867 101.288 46.5003C100.922 46.1295 100.738 45.6482 100.738 45.0587C100.738 44.4649 100.922 43.9816 101.288 43.6087C101.659 43.2378 102.14 43.0482 102.73 43.042ZM101.58 44.7503H103.838C103.822 44.4337 103.713 44.1837 103.513 44.0003C103.317 43.817 103.059 43.7253 102.738 43.7253C102.426 43.7253 102.167 43.817 101.963 44.0003C101.757 44.1837 101.63 44.4337 101.58 44.7503Z" fill="#7B7B7B"/>
<path d="M108.269 43.042C108.823 43.042 109.273 43.2316 109.619 43.6087C109.969 43.9816 110.144 44.4649 110.144 45.0587C110.144 45.6545 109.973 46.1337 109.636 46.5003C109.296 46.867 108.844 47.0503 108.277 47.0503C107.648 47.0503 107.186 46.8128 106.886 46.3337V48.4503H106.036V43.0753H106.886V43.7587C107.186 43.2816 107.646 43.042 108.269 43.042ZM107.219 45.9587C107.446 46.1982 107.736 46.317 108.086 46.317C108.436 46.317 108.721 46.1982 108.944 45.9587C109.171 45.7212 109.286 45.4128 109.286 45.0337C109.286 44.6628 109.171 44.3566 108.944 44.117C108.721 43.8795 108.436 43.7587 108.086 43.7587C107.736 43.7587 107.446 43.8795 107.219 44.117C106.996 44.3566 106.886 44.6628 106.886 45.0337C106.886 45.4128 106.996 45.7212 107.219 45.9587Z" fill="#7B7B7B"/>
<path d="M111.63 41.5753C111.724 41.4815 111.843 41.4336 111.989 41.4336C112.132 41.4336 112.251 41.4815 112.347 41.5753C112.441 41.6711 112.489 41.7961 112.489 41.9503C112.489 42.1003 112.441 42.2232 112.347 42.3169C112.251 42.4128 112.132 42.4586 111.989 42.4586C111.843 42.4586 111.724 42.4128 111.63 42.3169C111.541 42.2232 111.497 42.1003 111.497 41.9503C111.497 41.7961 111.541 41.6711 111.63 41.5753ZM112.414 47.0169H111.572V43.0753H112.414V47.0169Z" fill="#7B7B7B"/>
<path d="M116.509 43.042C116.97 43.042 117.328 43.1795 117.584 43.4503C117.845 43.717 117.976 44.0899 117.976 44.567V47.017H117.126V44.8003C117.126 44.5066 117.039 44.2753 116.868 44.1087C116.701 43.9378 116.47 43.8503 116.176 43.8503C115.859 43.8503 115.601 43.9503 115.401 44.1503C115.201 44.3503 115.087 44.6066 115.059 44.917V47.017H114.209V43.0753H115.059V43.8337C115.326 43.3066 115.809 43.042 116.509 43.042Z" fill="#7B7B7B"/>
<path d="M123.203 43.0753V46.6337C123.203 47.1941 123.016 47.642 122.645 47.9753C122.278 48.3087 121.782 48.4753 121.162 48.4753C120.578 48.4753 120.03 48.3024 119.52 47.9587L119.887 47.342C120.27 47.6295 120.68 47.7753 121.12 47.7753C121.497 47.7753 121.797 47.6712 122.02 47.467C122.247 47.267 122.362 46.9962 122.362 46.6503V46.1587C122.082 46.6045 121.647 46.8253 121.053 46.8253C120.52 46.8253 120.089 46.6503 119.762 46.3003C119.439 45.9503 119.278 45.4899 119.278 44.917C119.278 44.3628 119.439 43.9128 119.762 43.567C120.082 43.2232 120.505 43.0482 121.028 43.042C121.628 43.042 122.072 43.267 122.362 43.717V43.0753H123.203ZM121.228 46.1587C121.555 46.1587 121.824 46.0462 122.037 45.817C122.253 45.5899 122.362 45.2982 122.362 44.942C122.362 44.5878 122.255 44.2982 122.045 44.0753C121.832 43.8482 121.557 43.7337 121.22 43.7337C120.887 43.7337 120.614 43.8482 120.403 44.0753C120.191 44.2982 120.082 44.5878 120.078 44.942C120.082 45.2982 120.191 45.5899 120.403 45.817C120.614 46.0462 120.889 46.1587 121.228 46.1587Z" fill="#7B7B7B"/>
<path d="M129.547 45.2923V47.0173H128.68V45.3173L126.747 41.834H127.63L129.105 44.359L130.563 41.834H131.447L129.547 45.2923Z" fill="#7B7B7B"/>
<path d="M134.307 43.042C134.917 43.042 135.411 43.2295 135.79 43.6003C136.174 43.967 136.365 44.4503 136.365 45.0503C136.365 45.6399 136.174 46.1212 135.79 46.492C135.411 46.8649 134.917 47.0503 134.307 47.0503C133.694 47.0503 133.199 46.8649 132.815 46.492C132.436 46.1212 132.249 45.6399 132.249 45.0503C132.249 44.4503 132.436 43.967 132.815 43.6003C133.199 43.2295 133.694 43.042 134.307 43.042ZM134.307 43.7837C133.951 43.7837 133.659 43.9045 133.432 44.142C133.209 44.3753 133.099 44.6795 133.099 45.0503C133.099 45.4337 133.209 45.7462 133.432 45.9837C133.659 46.217 133.951 46.3337 134.307 46.3337C134.661 46.3337 134.951 46.217 135.174 45.9837C135.394 45.7462 135.507 45.4337 135.507 45.0503C135.507 44.6795 135.392 44.3753 135.165 44.142C134.942 43.9045 134.657 43.7837 134.307 43.7837Z" fill="#7B7B7B"/>
<path d="M141.361 43.0757V47.0173H140.511V46.2507C140.249 46.7736 139.78 47.0382 139.103 47.0507C138.653 47.0507 138.297 46.9153 138.036 46.6423C137.78 46.3715 137.653 45.9986 137.653 45.5257V43.0757H138.511V45.2924C138.511 45.5882 138.59 45.8215 138.753 45.9923C138.913 46.1653 139.138 46.2507 139.428 46.2507C139.755 46.2465 140.015 46.1299 140.211 45.9007C140.411 45.6674 140.511 45.3736 140.511 45.0173V43.0757H141.361Z" fill="#7B7B7B"/>
<path d="M150.984 47.0173H150.084L148.859 42.9757L147.609 47.0173H146.709L144.993 41.834H145.934L147.193 46.0507L148.443 41.8423L149.301 41.834L150.559 46.0507L151.809 41.834H152.718L150.984 47.0173Z" fill="#7B7B7B"/>
<path d="M155.424 43.042C156.101 43.042 156.591 43.2482 156.891 43.6587C157.195 44.0649 157.324 44.6378 157.274 45.3753H154.291C154.362 45.6816 154.508 45.9232 154.724 46.1003C154.941 46.2732 155.203 46.3587 155.516 46.3587C155.96 46.3587 156.328 46.2066 156.624 45.9003L157.083 46.3837C156.676 46.8295 156.133 47.0503 155.449 47.0503C154.843 47.0503 154.353 46.867 153.983 46.5003C153.616 46.1295 153.433 45.6482 153.433 45.0587C153.433 44.4649 153.616 43.9816 153.983 43.6087C154.353 43.2378 154.835 43.0482 155.424 43.042ZM154.274 44.7503H156.533C156.516 44.4337 156.408 44.1837 156.208 44.0003C156.012 43.817 155.753 43.7253 155.433 43.7253C155.12 43.7253 154.862 43.817 154.658 44.0003C154.451 44.1837 154.324 44.4337 154.274 44.7503Z" fill="#7B7B7B"/>
<path d="M159.58 47.0171H158.73V41.5171H159.58V47.0171Z" fill="#7B7B7B"/>
<path d="M162.298 47.0171H161.448V41.5171H162.298V47.0171Z" fill="#7B7B7B"/>
</svg>
